<svg width="204" height="106" viewBox="0 0 204 106" fill="none" xmlns="http://www.w3.org/2000/svg">
<path d="M2.46031 91.5316C1.97002 91.2773 1.36647 91.4687 1.11224 91.959C0.858019 92.4493 1.04939 93.0528 1.53969 93.3071L2.46031 91.5316ZM106.5 87.4193L107.047 88.2564L106.5 87.4193ZM197.462 2.14626C197.311 1.61492 196.759 1.30634 196.227 1.457L187.569 3.91234C187.037 4.063 186.729 4.61588 186.879 5.14722C187.03 5.67855 187.583 5.98713 188.114 5.83647L195.811 3.65396L197.993 11.3505C198.144 11.8818 198.697 12.1904 199.228 12.0397C199.759 11.8891 200.068 11.3362 199.917 10.8049L197.462 2.14626ZM5.57074 95.1467C6.07957 95.3614 6.66613 95.123 6.88086 94.6142C7.09559 94.1053 6.85718 93.5188 6.34835 93.304L5.57074 95.1467ZM18.5997 97.6286C18.0696 97.4736 17.5143 97.7777 17.3593 98.3078C17.2043 98.8379 17.5084 99.3932 18.0385 99.5482L18.5997 97.6286ZM26.5688 101.722C27.1084 101.84 27.6412 101.498 27.7589 100.958C27.8766 100.419 27.5345 99.886 26.9949 99.7683L26.5688 101.722ZM39.8337 101.857C39.2846 101.798 38.7917 102.195 38.7329 102.745C38.674 103.294 39.0715 103.787 39.6206 103.845L39.8337 101.857ZM48.4107 104.453C48.9628 104.469 49.4239 104.036 49.4408 103.484C49.4576 102.932 49.0238 102.47 48.4718 102.454L48.4107 104.453ZM61.4474 102.067C60.8975 102.118 60.4926 102.605 60.5431 103.155C60.5936 103.705 61.0803 104.109 61.6303 104.059L61.4474 102.067ZM70.3763 102.877C70.9199 102.779 71.2814 102.259 71.1837 101.715C71.0861 101.172 70.5662 100.81 70.0226 100.908L70.3763 102.877ZM82.6131 97.7665C82.0875 97.936 81.7988 98.4996 81.9684 99.0252C82.1379 99.5508 82.7014 99.8395 83.227 99.6699L82.6131 97.7665ZM91.4886 96.5862C91.9967 96.3698 92.2333 95.7825 92.017 95.2744C91.8006 94.7662 91.2133 94.5297 90.7052 94.746L91.4886 96.5862ZM102.269 88.8786C101.794 89.1605 101.637 89.7741 101.919 90.249C102.201 90.7239 102.815 90.8803 103.289 90.5984L102.269 88.8786ZM110.546 85.9458C111.006 85.6393 111.13 85.0183 110.823 84.559C110.516 84.0995 109.896 83.9756 109.436 84.2822L110.546 85.9458ZM119.677 77.2296C119.227 77.5496 119.121 78.1739 119.441 78.6241C119.761 79.0742 120.385 79.1797 120.835 78.8597L119.677 77.2296ZM127.581 73.96C128.024 73.6308 128.117 73.0045 127.788 72.561C127.459 72.1175 126.832 72.0249 126.389 72.3541L127.581 73.96ZM136.254 64.7842C135.822 65.1275 135.749 65.7565 136.093 66.1892C136.436 66.6218 137.065 66.6943 137.498 66.351L136.254 64.7842ZM143.963 61.1029C144.388 60.75 144.446 60.1195 144.093 59.6947C143.74 59.2698 143.11 59.2115 142.685 59.5644L143.963 61.1029ZM152.098 51.4616C151.686 51.8293 151.65 52.4615 152.018 52.8735C152.386 53.2856 153.018 53.3214 153.43 52.9537L152.098 51.4616ZM159.595 47.3111C159.998 46.9331 160.018 46.3002 159.64 45.8976C159.262 45.4949 158.629 45.475 158.226 45.853L159.595 47.3111ZM167.097 37.1871C166.71 37.581 166.715 38.2141 167.109 38.6012C167.503 38.9883 168.136 38.9827 168.523 38.5888L167.097 37.1871ZM174.29 32.5478C174.665 32.1427 174.641 31.51 174.236 31.1346C173.831 30.7593 173.198 30.7834 172.823 31.1885L174.29 32.5478ZM181.043 21.879C180.688 22.302 180.743 22.9328 181.167 23.2878C181.59 23.6428 182.22 23.5876 182.575 23.1646L181.043 21.879ZM187.829 16.6608C188.167 16.2244 188.088 15.5962 187.652 15.2577C187.215 14.9192 186.587 14.9986 186.249 15.435L187.829 16.6608ZM193.488 5.3741C193.185 5.83602 193.314 6.4559 193.776 6.75862C194.238 7.06135 194.858 6.9323 195.161 6.47038L193.488 5.3741ZM2 92.4193C1.53969 93.3071 1.53975 93.3071 1.53982 93.3071C1.53985 93.3072 1.53993 93.3072 1.53999 93.3072C1.54011 93.3073 1.54026 93.3074 1.54042 93.3075C1.54076 93.3076 1.54117 93.3078 1.54168 93.3081C1.54268 93.3086 1.54403 93.3093 1.54572 93.3102C1.54909 93.3119 1.55383 93.3144 1.55992 93.3175C1.57211 93.3237 1.58972 93.3327 1.61269 93.3444C1.65863 93.3677 1.72602 93.4016 1.8144 93.4455C1.99114 93.5331 2.25184 93.6604 2.59273 93.8214C3.27448 94.1435 4.27717 94.6008 5.57074 95.1467L6.34835 93.304C5.08222 92.7697 4.10513 92.324 3.44704 92.0131C3.11801 91.8576 2.86876 91.7359 2.70305 91.6537C2.62019 91.6126 2.55822 91.5814 2.51761 91.5608C2.4973 91.5505 2.48234 91.5429 2.47277 91.538C2.46798 91.5355 2.46455 91.5337 2.46247 91.5327C2.46143 91.5321 2.46073 91.5318 2.46037 91.5316C2.46019 91.5315 2.4601 91.5314 2.46009 91.5314C2.46008 91.5314 2.4601 91.5314 2.46014 91.5315C2.46016 91.5315 2.4602 91.5315 2.46021 91.5315C2.46026 91.5315 2.46031 91.5316 2 92.4193ZM18.0385 99.5482C20.6365 100.308 23.4922 101.052 26.5688 101.722L26.9949 99.7683C23.9671 99.1081 21.1566 98.3761 18.5997 97.6286L18.0385 99.5482ZM39.6206 103.845C42.4487 104.148 45.3848 104.36 48.4107 104.453L48.4718 102.454C45.4995 102.363 42.6142 102.155 39.8337 101.857L39.6206 103.845ZM61.6303 104.059C64.4992 103.796 67.4187 103.408 70.3763 102.877L70.0226 100.908C67.1239 101.429 64.2614 101.809 61.4474 102.067L61.6303 104.059ZM83.227 99.6699C85.9679 98.7859 88.7248 97.7627 91.4886 96.5862L90.7052 94.746C87.9981 95.8984 85.2977 96.9006 82.6131 97.7665L83.227 99.6699ZM103.289 90.5984C104.544 89.8538 105.796 89.0736 107.047 88.2564L105.953 86.5822C104.726 87.3837 103.498 88.1487 102.269 88.8786L103.289 90.5984ZM107.047 88.2564C108.227 87.4854 109.393 86.7151 110.546 85.9458L109.436 84.2822C108.289 85.0479 107.128 85.8147 105.953 86.5822L107.047 88.2564ZM120.835 78.8597C123.145 77.2182 125.393 75.5842 127.581 73.96L126.389 72.3541C124.212 73.9701 121.975 75.596 119.677 77.2296L120.835 78.8597ZM137.498 66.351C139.724 64.5845 141.879 62.8342 143.963 61.1029L142.685 59.5644C140.612 61.2862 138.469 63.0271 136.254 64.7842L137.498 66.351ZM153.43 52.9537C155.574 51.04 157.628 49.1577 159.595 47.3111L158.226 45.853C156.271 47.6881 154.229 49.5591 152.098 51.4616L153.43 52.9537ZM168.523 38.5888C170.566 36.5096 172.487 34.4934 174.29 32.5478L172.823 31.1885C171.033 33.1198 169.126 35.122 167.097 37.1871L168.523 38.5888ZM182.575 23.1646C184.538 20.8262 186.285 18.6512 187.829 16.6608L186.249 15.435C184.72 17.4055 182.989 19.5605 181.043 21.879L182.575 23.1646ZM195.161 6.47038C195.911 5.32574 196.461 4.43972 196.825 3.83736C197.007 3.5362 197.143 3.30595 197.234 3.14974C197.279 3.07164 197.313 3.01206 197.336 2.97138C197.348 2.95103 197.357 2.93542 197.363 2.92458C197.366 2.91917 197.368 2.91495 197.37 2.91192C197.371 2.91041 197.372 2.90919 197.372 2.90828C197.372 2.90782 197.373 2.90744 197.373 2.90714C197.373 2.90699 197.373 2.90685 197.373 2.90673C197.373 2.90668 197.373 2.90661 197.373 2.90657C197.373 2.90651 197.373 2.90645 196.5 2.41907C195.627 1.93169 195.627 1.93164 195.627 1.9316C195.627 1.93158 195.627 1.93155 195.627 1.93152C195.627 1.93148 195.627 1.93146 195.627 1.93146C195.627 1.93145 195.627 1.93153 195.627 1.93167C195.627 1.93196 195.626 1.93255 195.626 1.93345C195.625 1.93523 195.623 1.93822 195.621 1.94239C195.616 1.95075 195.609 1.96387 195.598 1.98172C195.578 2.01741 195.547 2.072 195.504 2.14509C195.42 2.29126 195.29 2.51142 195.114 2.80246C194.762 3.38454 194.224 4.25009 193.488 5.3741L195.161 6.47038ZM2.92063 90.6438C1.94004 90.1354 0.732936 90.5181 0.224488 91.4987C-0.283961 92.4793 0.0987835 93.6864 1.07937 94.1948L2.92063 90.6438ZM106.5 87.4193L107.594 89.0936L106.5 87.4193ZM198.424 1.87344C198.123 0.810773 197.017 0.193598 195.954 0.49494L178.637 5.40559C177.574 5.70694 176.957 6.8127 177.259 7.87536C177.56 8.93802 178.666 9.55521 179.728 9.25386L195.121 4.88884L199.487 20.2819C199.788 21.3446 200.894 21.9618 201.956 21.6604C203.019 21.3591 203.636 20.2533 203.335 19.1906L198.424 1.87344ZM5.18193 96.068C6.1996 96.4975 7.37272 96.0206 7.80218 95.003C8.23165 93.9853 7.75482 92.8122 6.73715 92.3827L5.18193 96.068ZM18.8803 96.6688C17.8201 96.3588 16.7094 96.967 16.3995 98.0272C16.0895 99.0874 16.6977 100.198 17.7579 100.508L18.8803 96.6688ZM26.3557 102.699C27.435 102.935 28.5006 102.251 28.7359 101.171C28.9713 100.092 28.2872 99.0266 27.208 98.7913L26.3557 102.699ZM39.9402 100.863C38.842 100.745 37.8562 101.54 37.7385 102.638C37.6209 103.736 38.4158 104.722 39.5141 104.84L39.9402 100.863ZM48.3802 105.452C49.4843 105.486 50.4066 104.618 50.4403 103.514C50.474 102.41 49.6063 101.488 48.5023 101.454L48.3802 105.452ZM61.356 101.072C60.256 101.173 59.4462 102.146 59.5473 103.246C59.6483 104.346 60.6218 105.156 61.7218 105.055L61.356 101.072ZM70.5531 103.861C71.6403 103.665 72.3633 102.626 72.1679 101.539C71.9726 100.452 70.933 99.7285 69.8458 99.9238L70.5531 103.861ZM82.3062 96.8148C81.2549 97.1538 80.6776 98.2809 81.0166 99.3321C81.3557 100.383 82.4828 100.961 83.534 100.622L82.3062 96.8148ZM91.8803 97.5063C92.8966 97.0736 93.3697 95.899 92.9371 94.8827C92.5044 93.8664 91.3298 93.3932 90.3135 93.8259L91.8803 97.5063ZM101.758 88.0187C100.808 88.5826 100.495 89.8097 101.059 90.7595C101.623 91.7093 102.85 92.0221 103.8 91.4583L101.758 88.0187ZM111.101 86.7776C112.02 86.1645 112.268 84.9227 111.655 84.0039C111.042 83.0851 109.8 82.8373 108.881 83.4504L111.101 86.7776ZM119.097 76.4146C118.197 77.0546 117.986 78.3032 118.626 79.2035C119.266 80.1038 120.515 80.3147 121.415 79.6748L119.097 76.4146ZM128.177 74.763C129.064 74.1046 129.249 72.8519 128.591 71.965C127.933 71.078 126.68 70.8927 125.793 71.5511L128.177 74.763ZM135.633 64.0009C134.768 64.6874 134.623 65.9454 135.309 66.8107C135.996 67.676 137.254 67.8209 138.119 67.1344L135.633 64.0009ZM144.602 61.8721C145.451 61.1663 145.568 59.9053 144.862 59.0557C144.156 58.206 142.895 58.0894 142.046 58.7952L144.602 61.8721ZM151.432 50.7155C150.608 51.451 150.536 52.7153 151.272 53.5394C152.007 54.3635 153.272 54.4353 154.096 53.6997L151.432 50.7155ZM160.279 48.0401C161.085 47.2841 161.125 46.0184 160.369 45.2131C159.613 44.4078 158.347 44.3679 157.542 45.1239L160.279 48.0401ZM166.384 36.4862C165.609 37.2741 165.621 38.5404 166.408 39.3145C167.196 40.0887 168.463 40.0775 169.237 39.2897L166.384 36.4862ZM175.023 33.2275C175.774 32.4172 175.726 31.1518 174.916 30.4011C174.105 29.6504 172.84 29.6986 172.089 30.5089L175.023 33.2275ZM180.277 21.2362C179.567 22.0823 179.678 23.3438 180.524 24.0538C181.37 24.7639 182.631 24.6535 183.341 23.8074L180.277 21.2362ZM188.619 17.2737C189.296 16.4009 189.137 15.1446 188.265 14.4676C187.392 13.7906 186.135 13.9493 185.458 14.8221L188.619 17.2737ZM192.651 4.82596C192.046 5.74981 192.304 6.98956 193.228 7.59501C194.152 8.20047 195.391 7.94237 195.997 7.01852L192.651 4.82596ZM2 92.4193C1.07937 94.1948 1.0795 94.1949 1.07963 94.195C1.07968 94.195 1.07982 94.1951 1.07992 94.1951C1.08012 94.1952 1.08035 94.1953 1.08059 94.1955C1.08109 94.1957 1.08167 94.196 1.08233 94.1964C1.08366 94.197 1.08533 94.1979 1.08734 94.1989C1.09137 94.201 1.09675 94.2038 1.1035 94.2073C1.117 94.2142 1.13593 94.2238 1.16023 94.2362C1.20883 94.2608 1.27894 94.2961 1.37007 94.3413C1.55234 94.4317 1.81876 94.5618 2.16558 94.7256C2.85916 95.0533 3.87464 95.5163 5.18193 96.068L6.73715 92.3827C5.48475 91.8542 4.52046 91.4142 3.87419 91.1089C3.55109 90.9563 3.30757 90.8373 3.14737 90.7579C3.06728 90.7181 3.00802 90.6883 2.97007 90.669C2.9511 90.6594 2.93745 90.6524 2.92919 90.6482C2.92506 90.6461 2.92228 90.6446 2.92085 90.6439C2.92013 90.6435 2.91976 90.6433 2.91972 90.6433C2.9197 90.6433 2.91977 90.6434 2.91992 90.6434C2.91999 90.6435 2.92009 90.6435 2.92021 90.6436C2.92027 90.6436 2.92037 90.6437 2.9204 90.6437C2.92051 90.6437 2.92063 90.6438 2 92.4193ZM17.7579 100.508C20.3765 101.274 23.2548 102.023 26.3557 102.699L27.208 98.7913C24.2046 98.1364 21.4166 97.4102 18.8803 96.6688L17.7579 100.508ZM39.5141 104.84C42.366 105.145 45.3275 105.359 48.3802 105.452L48.5023 101.454C45.5568 101.364 42.6969 101.158 39.9402 100.863L39.5141 104.84ZM61.7218 105.055C64.6181 104.789 67.5661 104.397 70.5531 103.861L69.8458 99.9238C66.9765 100.439 64.1425 100.816 61.356 101.072L61.7218 105.055ZM83.534 100.622C86.303 99.7286 89.0882 98.6949 91.8803 97.5063L90.3135 93.8259C87.6347 94.9663 84.9626 95.958 82.3062 96.8148L83.534 100.622ZM103.8 91.4583C105.067 90.7064 106.331 89.9186 107.594 89.0936L105.406 85.7451C104.191 86.5387 102.975 87.2961 101.758 88.0187L103.8 91.4583ZM107.594 89.0936C108.777 88.3207 109.946 87.5487 111.101 86.7776L108.881 83.4504C107.736 84.2143 106.578 84.9793 105.406 85.7451L107.594 89.0936ZM121.415 79.6748C123.73 78.0292 125.983 76.3913 128.177 74.763L125.793 71.5511C123.621 73.1631 121.39 74.785 119.097 76.4146L121.415 79.6748ZM138.119 67.1344C140.351 65.3632 142.512 63.6082 144.602 61.8721L142.046 58.7952C139.979 60.5122 137.842 62.2484 135.633 64.0009L138.119 67.1344ZM154.096 53.6997C156.246 51.7804 158.307 49.8924 160.279 48.0401L157.542 45.1239C155.593 46.9534 153.557 48.8187 151.432 50.7155L154.096 53.6997ZM169.237 39.2897C171.287 37.2035 173.214 35.1801 175.023 33.2275L172.089 30.5089C170.306 32.4331 168.406 34.4281 166.384 36.4862L169.237 39.2897ZM183.341 23.8074C185.312 21.459 187.067 19.2741 188.619 17.2737L185.458 14.8221C183.938 16.7826 182.214 18.9277 180.277 21.2362L183.341 23.8074ZM195.997 7.01852C196.754 5.86356 197.311 4.9673 197.681 4.35482C197.866 4.04858 198.005 3.81328 198.098 3.65207C198.145 3.57147 198.181 3.50938 198.205 3.46621C198.218 3.44463 198.227 3.42777 198.234 3.41569C198.238 3.40964 198.24 3.40479 198.242 3.40115C198.243 3.39933 198.244 3.3978 198.245 3.39658C198.245 3.39598 198.245 3.39544 198.246 3.39497C198.246 3.39474 198.246 3.39454 198.246 3.39434C198.246 3.39425 198.246 3.39411 198.246 3.39407C198.246 3.39394 198.246 3.39382 196.5 2.41907C194.754 1.44433 194.754 1.44421 194.754 1.4441C194.754 1.44407 194.754 1.44398 194.754 1.44391C194.754 1.4438 194.754 1.4437 194.754 1.44361C194.754 1.44346 194.754 1.44337 194.754 1.44336C194.754 1.44335 194.754 1.44363 194.754 1.44422C194.753 1.44538 194.752 1.44774 194.75 1.4513C194.746 1.4584 194.739 1.47029 194.73 1.48688C194.711 1.52009 194.681 1.57217 194.64 1.64275C194.558 1.78391 194.431 1.99904 194.258 2.28501C193.912 2.85696 193.381 3.71227 192.651 4.82596L195.997 7.01852Z" fill="#4A6FB5"/>
</svg>
