<svg width="371" height="339" viewBox="0 0 371 339" fill="none" xmlns="http://www.w3.org/2000/svg">
<path d="M201.989 134.096C201.989 185.113 159.235 212.921 103.458 212.921C47.68 212.921 0 175.259 0 124.243C0 73.2271 47.68 28.1754 103.458 28.1754C159.235 28.1754 201.989 83.0802 201.989 134.096Z" fill="#3A8569"/>
<path d="M317.054 150.884C362.102 263.419 253.718 290.515 215.537 269.577C166.271 269.577 107.356 172.633 201.989 111.927C215.537 33.102 264 18.1757 292.471 24.9037C322.5 32 346.955 79.751 317.054 150.884Z" fill="#DBB257"/>
<path d="M120.701 232.628C120.701 251.674 105.812 267.113 87.4464 267.113C69.0806 267.113 54.1921 251.674 54.1921 232.628C54.1921 213.581 69.0806 198.142 87.4464 198.142C105.812 198.142 120.701 213.581 120.701 232.628Z" fill="#4A6FB5"/>
<path d="M187.209 257.26C187.209 276.306 172.321 291.746 153.955 291.746C135.589 291.746 120.701 276.306 120.701 257.26C120.701 238.214 135.589 222.774 153.955 222.774C172.321 222.774 187.209 238.214 187.209 257.26Z" fill="#4A6FB5"/>
<path d="M133.017 304.063C133.017 323.109 118.129 338.549 99.7628 338.549C81.397 338.549 66.5085 323.109 66.5085 304.063C66.5085 285.017 81.397 269.577 99.7628 269.577C118.129 269.577 133.017 285.017 133.017 304.063Z" fill="#4A6FB5"/>
</svg>
