<svg width="530" height="335" viewBox="0 0 530 335" fill="none" xmlns="http://www.w3.org/2000/svg">
<rect x="0.5" y="0.5" width="528.087" height="334" rx="4.5" fill="#F5F5F5" stroke="#322F44"/>
<path d="M134.577 73V65.85H136.617L137.627 69.44C137.7 69.7067 137.774 70.0033 137.847 70.33C137.927 70.65 137.987 70.9033 138.027 71.09L138.077 71.37H138.097C138.224 70.6833 138.37 70.04 138.537 69.44L139.547 65.85H141.617V73H140.267V68.9L140.327 67.42H140.307C140.2 67.98 140.097 68.4333 139.997 68.78L138.767 73H137.377L136.177 68.78L135.867 67.42H135.847C135.887 68.02 135.907 68.5133 135.907 68.9V73H134.577ZM146.971 72.38C146.471 72.8933 145.828 73.15 145.041 73.15C144.255 73.15 143.611 72.8933 143.111 72.38C142.611 71.86 142.361 71.2133 142.361 70.44C142.361 69.6667 142.611 69.0233 143.111 68.51C143.611 67.99 144.255 67.73 145.041 67.73C145.828 67.73 146.471 67.99 146.971 68.51C147.471 69.0233 147.721 69.6667 147.721 70.44C147.721 71.2133 147.471 71.86 146.971 72.38ZM145.041 72.11C145.448 72.11 145.765 71.96 145.991 71.66C146.225 71.3533 146.341 70.9467 146.341 70.44C146.341 69.9333 146.225 69.5267 145.991 69.22C145.765 68.9133 145.448 68.76 145.041 68.76C144.628 68.76 144.308 68.9133 144.081 69.22C143.855 69.52 143.741 69.9267 143.741 70.44C143.741 70.9467 143.855 71.3533 144.081 71.66C144.308 71.96 144.628 72.11 145.041 72.11ZM149.684 67.87V68.57H149.714C150.067 68.01 150.574 67.73 151.234 67.73C151.76 67.73 152.187 67.91 152.514 68.27C152.84 68.6233 153.004 69.0833 153.004 69.65V73H151.644V69.85C151.644 69.57 151.564 69.3433 151.404 69.17C151.25 68.9967 151.034 68.91 150.754 68.91C150.454 68.91 150.204 69.02 150.004 69.24C149.81 69.46 149.714 69.7433 149.714 70.09V73H148.354V67.87H149.684Z" fill="black"/>
<path d="M194.743 67.07V65.85H200.493V67.07H198.343V73H196.893V67.07H194.743ZM204.963 73H203.653V72.4H203.623C203.436 72.6533 203.229 72.84 203.003 72.96C202.783 73.08 202.499 73.14 202.153 73.14C201.593 73.14 201.156 72.9733 200.843 72.64C200.529 72.3067 200.373 71.8567 200.373 71.29V67.87H201.723V71.06C201.723 71.68 202.006 71.99 202.573 71.99C202.886 71.99 203.136 71.8833 203.323 71.67C203.509 71.4567 203.603 71.1767 203.603 70.83V67.87H204.963V73ZM207.922 73.15C207.189 73.15 206.616 72.99 206.202 72.67C205.789 72.3433 205.562 71.9 205.522 71.34H206.782C206.869 71.9067 207.242 72.19 207.902 72.19C208.202 72.19 208.432 72.1367 208.592 72.03C208.759 71.9233 208.842 71.78 208.842 71.6C208.842 71.5333 208.829 71.4733 208.802 71.42C208.782 71.3667 208.742 71.32 208.682 71.28C208.629 71.2333 208.579 71.1967 208.532 71.17C208.492 71.1433 208.419 71.1167 208.312 71.09C208.206 71.0633 208.122 71.0433 208.062 71.03C208.009 71.0167 207.912 71 207.772 70.98C207.639 70.9533 207.546 70.9333 207.492 70.92C207.212 70.8667 206.982 70.8133 206.802 70.76C206.629 70.7 206.446 70.6167 206.252 70.51C206.059 70.3967 205.912 70.2467 205.812 70.06C205.719 69.8667 205.672 69.6367 205.672 69.37C205.672 68.8367 205.866 68.43 206.252 68.15C206.646 67.87 207.149 67.73 207.762 67.73C208.422 67.73 208.939 67.8833 209.312 68.19C209.692 68.49 209.909 68.9033 209.962 69.43H208.732C208.679 68.93 208.349 68.68 207.742 68.68C207.469 68.68 207.252 68.73 207.092 68.83C206.939 68.93 206.862 69.07 206.862 69.25C206.862 69.31 206.872 69.3667 206.892 69.42C206.919 69.4667 206.959 69.51 207.012 69.55C207.072 69.5833 207.129 69.6133 207.182 69.64C207.236 69.66 207.312 69.6833 207.412 69.71C207.512 69.73 207.599 69.75 207.672 69.77C207.746 69.7833 207.846 69.8033 207.972 69.83C208.099 69.85 208.199 69.8667 208.272 69.88C208.486 69.9267 208.659 69.97 208.792 70.01C208.932 70.0433 209.092 70.1033 209.272 70.19C209.452 70.27 209.592 70.3633 209.692 70.47C209.799 70.57 209.889 70.71 209.962 70.89C210.042 71.0633 210.082 71.2667 210.082 71.5C210.082 72.0067 209.882 72.41 209.482 72.71C209.089 73.0033 208.569 73.15 207.922 73.15Z" fill="black"/>
<path d="M251.175 73L249.095 65.85H250.575L251.505 69.4L251.815 70.96H251.835C251.955 70.3667 252.065 69.86 252.165 69.44L252.945 65.85H254.345L255.125 69.43L255.455 70.96H255.475C255.615 70.3267 255.731 69.8033 255.825 69.39L256.725 65.85H258.155L256.115 73H254.765L253.895 69.17L253.645 67.9H253.625C253.551 68.4 253.475 68.8233 253.395 69.17L252.515 73H251.175ZM260.508 73.15C259.681 73.15 259.031 72.8967 258.558 72.39C258.085 71.8767 257.848 71.2233 257.848 70.43C257.848 69.6633 258.085 69.0233 258.558 68.51C259.031 67.99 259.638 67.73 260.378 67.73C261.185 67.73 261.808 68.01 262.248 68.57C262.688 69.13 262.908 69.88 262.908 70.82H259.188C259.241 71.2267 259.378 71.5433 259.598 71.77C259.818 71.99 260.118 72.1 260.498 72.1C260.998 72.1 261.328 71.89 261.488 71.47H262.828C262.728 71.95 262.475 72.35 262.068 72.67C261.661 72.99 261.141 73.15 260.508 73.15ZM260.398 68.78C259.738 68.78 259.341 69.1467 259.208 69.88H261.488C261.468 69.5533 261.358 69.29 261.158 69.09C260.958 68.8833 260.705 68.78 260.398 68.78ZM265.457 73.15C264.811 73.15 264.287 72.9067 263.887 72.42C263.487 71.9267 263.287 71.2667 263.287 70.44C263.287 69.64 263.491 68.99 263.897 68.49C264.311 67.9833 264.837 67.73 265.477 67.73C266.117 67.73 266.601 67.9833 266.927 68.49H266.957V65.85H268.317V73H267.007V72.33H266.987C266.654 72.8767 266.144 73.15 265.457 73.15ZM265.757 72.01C266.157 72.01 266.461 71.8733 266.667 71.6C266.881 71.3267 266.987 70.95 266.987 70.47C266.987 69.3767 266.591 68.83 265.797 68.83C265.431 68.83 265.151 68.9767 264.957 69.27C264.764 69.5633 264.667 69.9533 264.667 70.44C264.667 70.94 264.761 71.3267 264.947 71.6C265.141 71.8733 265.411 72.01 265.757 72.01Z" fill="black"/>
<path d="M309.761 67.07V65.85H315.511V67.07H313.361V73H311.911V67.07H309.761ZM317.494 65.85V68.54H317.524C317.717 68.26 317.927 68.0567 318.154 67.93C318.387 67.7967 318.674 67.73 319.014 67.73C319.541 67.73 319.967 67.91 320.294 68.27C320.621 68.6233 320.784 69.0833 320.784 69.65V73H319.424V69.85C319.424 69.57 319.344 69.3433 319.184 69.17C319.031 68.9967 318.814 68.91 318.534 68.91C318.234 68.91 317.984 69.02 317.784 69.24C317.591 69.46 317.494 69.7433 317.494 70.09V73H316.134V65.85H317.494ZM326.172 73H324.862V72.4H324.832C324.645 72.6533 324.439 72.84 324.212 72.96C323.992 73.08 323.709 73.14 323.362 73.14C322.802 73.14 322.365 72.9733 322.052 72.64C321.739 72.3067 321.582 71.8567 321.582 71.29V67.87H322.932V71.06C322.932 71.68 323.215 71.99 323.782 71.99C324.095 71.99 324.345 71.8833 324.532 71.67C324.719 71.4567 324.812 71.1767 324.812 70.83V67.87H326.172V73Z" fill="black"/>
<path d="M464.24 73.16C463.273 73.16 462.523 72.9567 461.99 72.55C461.456 72.1367 461.176 71.55 461.15 70.79H462.57C462.616 71.2167 462.766 71.5233 463.02 71.71C463.28 71.8967 463.666 71.99 464.18 71.99C464.586 71.99 464.92 71.9167 465.18 71.77C465.44 71.6167 465.57 71.3833 465.57 71.07C465.57 70.9567 465.553 70.8567 465.52 70.77C465.493 70.6767 465.433 70.5967 465.34 70.53C465.246 70.4567 465.166 70.4 465.1 70.36C465.033 70.3133 464.91 70.2667 464.73 70.22C464.55 70.1667 464.413 70.13 464.32 70.11C464.226 70.0833 464.053 70.04 463.8 69.98C463.493 69.9067 463.24 69.8433 463.04 69.79C462.846 69.7367 462.63 69.6533 462.39 69.54C462.156 69.4267 461.97 69.3033 461.83 69.17C461.696 69.03 461.583 68.85 461.49 68.63C461.396 68.4033 461.35 68.1467 461.35 67.86C461.35 67.1733 461.6 66.6467 462.1 66.28C462.606 65.9067 463.27 65.72 464.09 65.72C464.903 65.72 465.553 65.9133 466.04 66.3C466.526 66.6867 466.796 67.2367 466.85 67.95H465.46C465.42 67.6033 465.273 67.3367 465.02 67.15C464.773 66.9633 464.46 66.87 464.08 66.87C463.686 66.87 463.373 66.9467 463.14 67.1C462.906 67.2533 462.79 67.4567 462.79 67.71C462.79 67.9833 462.903 68.1833 463.13 68.31C463.363 68.4367 463.77 68.5633 464.35 68.69C464.696 68.7633 464.98 68.8333 465.2 68.9C465.42 68.96 465.656 69.05 465.91 69.17C466.17 69.2833 466.37 69.41 466.51 69.55C466.656 69.69 466.776 69.8767 466.87 70.11C466.97 70.3367 467.02 70.6 467.02 70.9C467.02 71.6067 466.763 72.16 466.25 72.56C465.736 72.96 465.066 73.16 464.24 73.16ZM472.326 73H471.016V72.4H470.986C470.799 72.6533 470.592 72.84 470.366 72.96C470.146 73.08 469.862 73.14 469.516 73.14C468.956 73.14 468.519 72.9733 468.206 72.64C467.892 72.3067 467.736 71.8567 467.736 71.29V67.87H469.086V71.06C469.086 71.68 469.369 71.99 469.936 71.99C470.249 71.99 470.499 71.8833 470.686 71.67C470.872 71.4567 470.966 71.1767 470.966 70.83V67.87H472.326V73ZM474.535 67.87V68.57H474.565C474.919 68.01 475.425 67.73 476.085 67.73C476.612 67.73 477.039 67.91 477.365 68.27C477.692 68.6233 477.855 69.0833 477.855 69.65V73H476.495V69.85C476.495 69.57 476.415 69.3433 476.255 69.17C476.102 68.9967 475.885 68.91 475.605 68.91C475.305 68.91 475.055 69.02 474.855 69.24C474.662 69.46 474.565 69.7433 474.565 70.09V73H473.205V67.87H474.535Z" fill="black"/>
<path d="M412.784 73.16C411.818 73.16 411.068 72.9567 410.534 72.55C410.001 72.1367 409.721 71.55 409.694 70.79H411.114C411.161 71.2167 411.311 71.5233 411.564 71.71C411.824 71.8967 412.211 71.99 412.724 71.99C413.131 71.99 413.464 71.9167 413.724 71.77C413.984 71.6167 414.114 71.3833 414.114 71.07C414.114 70.9567 414.098 70.8567 414.064 70.77C414.038 70.6767 413.978 70.5967 413.884 70.53C413.791 70.4567 413.711 70.4 413.644 70.36C413.578 70.3133 413.454 70.2667 413.274 70.22C413.094 70.1667 412.958 70.13 412.864 70.11C412.771 70.0833 412.598 70.04 412.344 69.98C412.038 69.9067 411.784 69.8433 411.584 69.79C411.391 69.7367 411.174 69.6533 410.934 69.54C410.701 69.4267 410.514 69.3033 410.374 69.17C410.241 69.03 410.128 68.85 410.034 68.63C409.941 68.4033 409.894 68.1467 409.894 67.86C409.894 67.1733 410.144 66.6467 410.644 66.28C411.151 65.9067 411.814 65.72 412.634 65.72C413.448 65.72 414.098 65.9133 414.584 66.3C415.071 66.6867 415.341 67.2367 415.394 67.95H414.004C413.964 67.6033 413.818 67.3367 413.564 67.15C413.318 66.9633 413.004 66.87 412.624 66.87C412.231 66.87 411.918 66.9467 411.684 67.1C411.451 67.2533 411.334 67.4567 411.334 67.71C411.334 67.9833 411.448 68.1833 411.674 68.31C411.908 68.4367 412.314 68.5633 412.894 68.69C413.241 68.7633 413.524 68.8333 413.744 68.9C413.964 68.96 414.201 69.05 414.454 69.17C414.714 69.2833 414.914 69.41 415.054 69.55C415.201 69.69 415.321 69.8767 415.414 70.11C415.514 70.3367 415.564 70.6 415.564 70.9C415.564 71.6067 415.308 72.16 414.794 72.56C414.281 72.96 413.611 73.16 412.784 73.16ZM419.55 73C419.484 72.9133 419.43 72.7233 419.39 72.43H419.37C419.224 72.65 419.037 72.82 418.81 72.94C418.584 73.06 418.267 73.12 417.86 73.12C417.32 73.12 416.887 72.9833 416.56 72.71C416.234 72.4367 416.07 72.05 416.07 71.55C416.07 71.03 416.25 70.65 416.61 70.41C416.97 70.1633 417.477 69.9933 418.13 69.9C418.61 69.8333 418.937 69.7667 419.11 69.7C419.284 69.6267 419.37 69.5 419.37 69.32C419.37 69.1333 419.297 68.9867 419.15 68.88C419.004 68.7667 418.79 68.71 418.51 68.71C417.89 68.71 417.56 68.95 417.52 69.43H416.31C416.33 68.9433 416.527 68.54 416.9 68.22C417.274 67.9 417.814 67.74 418.52 67.74C419.96 67.74 420.68 68.37 420.68 69.63V72.24C420.68 72.6267 420.74 72.8633 420.86 72.95V73H419.55ZM418.19 72.17C418.564 72.17 418.857 72.0733 419.07 71.88C419.29 71.6867 419.4 71.4567 419.4 71.19V70.42C419.254 70.5067 418.937 70.6067 418.45 70.72C418.064 70.8067 417.79 70.9067 417.63 71.02C417.47 71.1267 417.39 71.2933 417.39 71.52C417.39 71.9533 417.657 72.17 418.19 72.17ZM421.147 68.77V67.87H421.857V66.27H423.187V67.87H424.067V68.77H423.187V71.49C423.187 71.83 423.357 72 423.697 72L424.097 71.99V72.99C423.891 73.0033 423.607 73.01 423.247 73.01C422.854 73.01 422.524 72.9167 422.257 72.73C421.991 72.5367 421.857 72.22 421.857 71.78V68.77H421.147Z" fill="black"/>
<path d="M364.613 73V65.85H369.733V67.08H366.063V68.8H369.173V70.04H366.063V73H364.613ZM371.447 67.87V68.69H371.477C371.637 68.39 371.814 68.17 372.007 68.03C372.201 67.8833 372.444 67.81 372.737 67.81C372.877 67.81 372.984 67.8233 373.057 67.85V69.04H373.027C372.567 68.9933 372.197 69.0933 371.917 69.34C371.637 69.5867 371.497 69.9733 371.497 70.5V73H370.137V67.87H371.447ZM373.643 73V67.87H375.003V73H373.643ZM373.643 67.07V65.85H375.003V67.07H373.643Z" fill="black"/>
<rect x="457.893" y="97.2946" width="45.4018" height="45.4018" rx="3" fill="#D9D9D9"/>
<rect x="294.446" y="97.2946" width="45.4018" height="45.4018" rx="3" fill="#D9D9D9"/>
<rect x="348.929" y="97.2946" width="45.4018" height="45.4018" rx="3" fill="#D9D9D9"/>
<rect x="403.411" y="97.2946" width="45.4018" height="45.4018" rx="3" fill="#D9D9D9"/>
<rect x="185.482" y="97.2946" width="45.4018" height="45.4018" rx="3" fill="#F3F0EA"/>
<rect x="131" y="97.2946" width="45.4018" height="45.4018" rx="3" fill="#F3F0EA"/>
<rect x="239.964" y="97.2946" width="45.4018" height="45.4018" rx="3" fill="#F3F0EA"/>
<rect x="457.893" y="151.777" width="45.4018" height="45.4018" rx="3" fill="#D9D9D9"/>
<rect x="294.446" y="151.777" width="45.4018" height="45.4018" rx="3" fill="#D9D9D9"/>
<rect x="348.929" y="151.777" width="45.4018" height="45.4018" rx="3" fill="#D9D9D9"/>
<rect x="403.411" y="151.777" width="45.4018" height="45.4018" rx="3" fill="#D9D9D9"/>
<rect x="185.482" y="151.777" width="45.4018" height="45.4018" rx="3" fill="#D9D9D9"/>
<rect x="131" y="151.777" width="45.4018" height="45.4018" rx="3" fill="#D9D9D9"/>
<rect x="239.964" y="151.777" width="45.4018" height="45.4018" rx="3" fill="#D9D9D9"/>
<rect x="457.893" y="206.259" width="45.4018" height="45.4018" rx="3" fill="#D9D9D9"/>
<rect x="294.446" y="206.259" width="45.4018" height="45.4018" rx="3" fill="#3A8569"/>
<rect x="348.929" y="206.259" width="45.4018" height="45.4018" rx="3" fill="#3A8569"/>
<rect x="403.411" y="206.259" width="45.4018" height="45.4018" rx="3" fill="#D9D9D9"/>
<rect x="185.482" y="206.259" width="45.4018" height="45.4018" rx="3" fill="#3A8569"/>
<rect x="131" y="206.259" width="45.4018" height="45.4018" rx="3" fill="#3A8569"/>
<rect x="239.964" y="206.259" width="45.4018" height="45.4018" rx="3" fill="#3A8569"/>
<rect x="457.893" y="260.741" width="45.4018" height="45.4018" rx="3" fill="#F3F0EA"/>
<rect x="294.446" y="260.741" width="45.4018" height="45.4018" rx="3" fill="#D9D9D9"/>
<rect x="348.929" y="260.741" width="45.4018" height="45.4018" rx="3" fill="#D9D9D9"/>
<rect x="403.411" y="260.741" width="45.4018" height="45.4018" rx="3" fill="#D9D9D9"/>
<rect x="185.482" y="260.741" width="45.4018" height="45.4018" rx="3" fill="#D9D9D9"/>
<rect x="131" y="260.741" width="45.4018" height="45.4018" rx="3" fill="#D9D9D9"/>
<rect x="239.964" y="260.741" width="45.4018" height="45.4018" rx="3" fill="#D9D9D9"/>
<path fill-rule="evenodd" clip-rule="evenodd" d="M26.9335 23.5846C28.0784 24.5148 28.5079 24.4438 30.6579 24.3004L50.9261 23.0833C51.3559 23.0833 50.9985 22.6545 50.8551 22.5832L47.489 20.1498C46.844 19.649 45.9847 19.0756 44.3378 19.219L24.712 20.6505C23.9963 20.7214 23.8533 21.0793 24.1384 21.3662L26.9335 23.5846ZM28.1504 28.3081V49.6338C28.1504 50.7799 28.7231 51.2087 30.0122 51.1378L52.287 49.8489C53.5767 49.778 53.7204 48.9897 53.7204 48.0586V26.876C53.7204 25.9465 53.3628 25.4452 52.5733 25.5168L29.2959 26.876C28.4369 26.9482 28.1503 27.3779 28.1503 28.3081H28.1504ZM50.14 29.4521C50.2828 30.0968 50.14 30.7409 49.494 30.8134L48.4208 31.0272V46.7712C47.489 47.272 46.6297 47.5584 45.9137 47.5584C44.7673 47.5584 44.4801 47.2003 43.6214 46.1274L36.6012 35.1065V45.7696L38.8227 46.2708C38.8227 46.2708 38.8227 47.5584 37.0304 47.5584L32.0895 47.845C31.946 47.5584 32.0895 46.8433 32.5907 46.7001L33.8801 46.3427V32.2442L32.0899 32.1007C31.9463 31.456 32.3039 30.5264 33.3073 30.4543L38.6078 30.097L45.9137 41.2613V31.385L44.0509 31.1713C43.908 30.3831 44.4801 29.8108 45.1965 29.7398L50.14 29.4521ZM23.0642 18.7184L43.4781 17.215C45.985 17 46.63 17.144 48.2056 18.2886L54.722 22.8686C55.7972 23.6562 56.1556 23.8706 56.1556 24.7292V49.8489C56.1556 51.4232 55.5821 52.3542 53.577 52.4967L29.8703 53.9283C28.3652 54 27.6489 53.7855 26.8606 52.783L22.0619 46.5569C21.2021 45.4107 20.8445 44.5534 20.8445 43.5503V21.2222C20.8445 19.9348 21.4182 18.8609 23.0642 18.7184Z" fill="black"/>
</svg>
