<svg width="530" height="335" viewBox="0 0 530 335" fill="none" xmlns="http://www.w3.org/2000/svg">
<rect x="0.5" y="0.5" width="528.087" height="334" rx="4.5" fill="#F5F5F5" stroke="#322F44"/>
<rect x="321.706" y="31.9048" width="85.0794" height="124.96" rx="3" fill="#F3F0EA"/>
<path d="M332.112 51.5397L329.702 44.3897H331.222L332.482 48.5297L332.792 49.6697H332.812C332.926 49.2164 333.029 48.8364 333.122 48.5297L334.372 44.3897H335.842L333.432 51.5397H332.112ZM338.011 51.6897C337.184 51.6897 336.534 51.4364 336.061 50.9297C335.588 50.4164 335.351 49.7631 335.351 48.9697C335.351 48.2031 335.588 47.5631 336.061 47.0497C336.534 46.5297 337.141 46.2697 337.881 46.2697C338.688 46.2697 339.311 46.5497 339.751 47.1097C340.191 47.6697 340.411 48.4197 340.411 49.3597H336.691C336.744 49.7664 336.881 50.0831 337.101 50.3097C337.321 50.5297 337.621 50.6397 338.001 50.6397C338.501 50.6397 338.831 50.4297 338.991 50.0097H340.331C340.231 50.4897 339.978 50.8897 339.571 51.2097C339.164 51.5297 338.644 51.6897 338.011 51.6897ZM337.901 47.3197C337.241 47.3197 336.844 47.6864 336.711 48.4197H338.991C338.971 48.0931 338.861 47.8297 338.661 47.6297C338.461 47.4231 338.208 47.3197 337.901 47.3197ZM343.3 53.2897C342.607 53.2897 342.05 53.1497 341.63 52.8697C341.217 52.5897 340.974 52.1964 340.9 51.6897H342.25C342.384 52.0697 342.727 52.2597 343.28 52.2597C344.04 52.2597 344.42 51.9031 344.42 51.1897V50.6297H344.39C344.037 51.0297 343.59 51.2297 343.05 51.2297C342.444 51.2297 341.914 51.0064 341.46 50.5597C341.014 50.1131 340.79 49.5197 340.79 48.7797C340.79 48.0197 340.997 47.4131 341.41 46.9597C341.824 46.4997 342.357 46.2697 343.01 46.2697C343.63 46.2697 344.104 46.4964 344.43 46.9497H344.45V46.4097H345.76V51.1497C345.76 51.8164 345.557 52.3364 345.15 52.7097C344.737 53.0964 344.12 53.2897 343.3 53.2897ZM343.28 50.1397C343.687 50.1397 343.99 50.0097 344.19 49.7497C344.39 49.4897 344.49 49.1564 344.49 48.7497C344.49 48.3497 344.384 48.0197 344.17 47.7597C343.964 47.4931 343.664 47.3597 343.27 47.3597C342.924 47.3597 342.644 47.4864 342.43 47.7397C342.224 47.9931 342.12 48.3331 342.12 48.7597C342.12 49.1931 342.224 49.5331 342.43 49.7797C342.644 50.0197 342.927 50.1397 343.28 50.1397ZM349.046 51.6897C348.219 51.6897 347.569 51.4364 347.096 50.9297C346.623 50.4164 346.386 49.7631 346.386 48.9697C346.386 48.2031 346.623 47.5631 347.096 47.0497C347.569 46.5297 348.176 46.2697 348.916 46.2697C349.723 46.2697 350.346 46.5497 350.786 47.1097C351.226 47.6697 351.446 48.4197 351.446 49.3597H347.726C347.779 49.7664 347.916 50.0831 348.136 50.3097C348.356 50.5297 348.656 50.6397 349.036 50.6397C349.536 50.6397 349.866 50.4297 350.026 50.0097H351.366C351.266 50.4897 351.013 50.8897 350.606 51.2097C350.199 51.5297 349.679 51.6897 349.046 51.6897ZM348.936 47.3197C348.276 47.3197 347.879 47.6864 347.746 48.4197H350.026C350.006 48.0931 349.896 47.8297 349.696 47.6297C349.496 47.4231 349.243 47.3197 348.936 47.3197Z" fill="black"/>
<rect x="329.682" y="77.1032" width="69.127" height="29.246" rx="3" fill="#DBB257"/>
<rect x="329.682" y="111.667" width="69.127" height="29.246" rx="3" fill="#DBB257"/>
<rect x="420.079" y="31.9048" width="85.0794" height="124.96" rx="3" fill="#F3F0EA"/>
<path d="M431.376 51.6997C430.409 51.6997 429.659 51.4964 429.126 51.0897C428.592 50.6764 428.312 50.0897 428.286 49.3297H429.706C429.752 49.7564 429.902 50.0631 430.156 50.2497C430.416 50.4364 430.802 50.5297 431.316 50.5297C431.722 50.5297 432.056 50.4564 432.316 50.3097C432.576 50.1564 432.706 49.9231 432.706 49.6097C432.706 49.4964 432.689 49.3964 432.656 49.3097C432.629 49.2164 432.569 49.1364 432.476 49.0697C432.382 48.9964 432.302 48.9397 432.236 48.8997C432.169 48.8531 432.046 48.8064 431.866 48.7597C431.686 48.7064 431.549 48.6697 431.456 48.6497C431.362 48.6231 431.189 48.5797 430.936 48.5197C430.629 48.4464 430.376 48.3831 430.176 48.3297C429.982 48.2764 429.766 48.1931 429.526 48.0797C429.292 47.9664 429.106 47.8431 428.966 47.7097C428.832 47.5697 428.719 47.3897 428.626 47.1697C428.532 46.9431 428.486 46.6864 428.486 46.3997C428.486 45.7131 428.736 45.1864 429.236 44.8197C429.742 44.4464 430.406 44.2597 431.226 44.2597C432.039 44.2597 432.689 44.4531 433.176 44.8397C433.662 45.2264 433.932 45.7764 433.986 46.4897H432.596C432.556 46.1431 432.409 45.8764 432.156 45.6897C431.909 45.5031 431.596 45.4097 431.216 45.4097C430.822 45.4097 430.509 45.4864 430.276 45.6397C430.042 45.7931 429.926 45.9964 429.926 46.2497C429.926 46.5231 430.039 46.7231 430.266 46.8497C430.499 46.9764 430.906 47.1031 431.486 47.2297C431.832 47.3031 432.116 47.3731 432.336 47.4397C432.556 47.4997 432.792 47.5897 433.046 47.7097C433.306 47.8231 433.506 47.9497 433.646 48.0897C433.792 48.2297 433.912 48.4164 434.006 48.6497C434.106 48.8764 434.156 49.1397 434.156 49.4397C434.156 50.1464 433.899 50.6997 433.386 51.0997C432.872 51.4997 432.202 51.6997 431.376 51.6997ZM439.272 50.9197C438.772 51.4331 438.128 51.6897 437.342 51.6897C436.555 51.6897 435.912 51.4331 435.412 50.9197C434.912 50.3997 434.662 49.7531 434.662 48.9797C434.662 48.2064 434.912 47.5631 435.412 47.0497C435.912 46.5297 436.555 46.2697 437.342 46.2697C438.128 46.2697 438.772 46.5297 439.272 47.0497C439.772 47.5631 440.022 48.2064 440.022 48.9797C440.022 49.7531 439.772 50.3997 439.272 50.9197ZM437.342 50.6497C437.748 50.6497 438.065 50.4997 438.292 50.1997C438.525 49.8931 438.642 49.4864 438.642 48.9797C438.642 48.4731 438.525 48.0664 438.292 47.7597C438.065 47.4531 437.748 47.2997 437.342 47.2997C436.928 47.2997 436.608 47.4531 436.382 47.7597C436.155 48.0597 436.042 48.4664 436.042 48.9797C436.042 49.4864 436.155 49.8931 436.382 50.1997C436.608 50.4997 436.928 50.6497 437.342 50.6497ZM445.204 51.5397H443.894V50.9397H443.864C443.677 51.1931 443.47 51.3797 443.244 51.4997C443.024 51.6197 442.74 51.6797 442.394 51.6797C441.834 51.6797 441.397 51.5131 441.084 51.1797C440.77 50.8464 440.614 50.3964 440.614 49.8297V46.4097H441.964V49.5997C441.964 50.2197 442.247 50.5297 442.814 50.5297C443.127 50.5297 443.377 50.4231 443.564 50.2097C443.75 49.9964 443.844 49.7164 443.844 49.3697V46.4097H445.204V51.5397ZM446.083 53.2197V46.4097H447.393V47.0497H447.423C447.803 46.5297 448.307 46.2697 448.933 46.2697C449.607 46.2697 450.147 46.5197 450.553 47.0197C450.96 47.5197 451.163 48.1731 451.163 48.9797C451.163 49.8064 450.96 50.4664 450.553 50.9597C450.147 51.4464 449.61 51.6897 448.943 51.6897C448.277 51.6897 447.783 51.4464 447.463 50.9597H447.443V53.2197H446.083ZM448.653 50.5597C449 50.5597 449.273 50.4231 449.473 50.1497C449.68 49.8764 449.783 49.4997 449.783 49.0197C449.783 48.5064 449.687 48.1031 449.493 47.8097C449.3 47.5164 449.003 47.3697 448.603 47.3697C448.197 47.3697 447.897 47.5231 447.703 47.8297C447.51 48.1297 447.413 48.5264 447.413 49.0197C447.413 49.4931 447.52 49.8697 447.733 50.1497C447.947 50.4231 448.253 50.5597 448.653 50.5597Z" fill="black"/>
<rect x="428.056" y="77.1032" width="69.127" height="29.246" rx="3" fill="#DBB257"/>
<rect x="428.056" y="111.667" width="69.127" height="29.246" rx="3" fill="#DBB257"/>
<rect x="223.333" y="34.5635" width="85.0794" height="124.96" rx="3" fill="#F3F0EA"/>
<path d="M231.86 54.1985V47.0485H235.14C235.826 47.0485 236.38 47.2318 236.8 47.5985C237.226 47.9652 237.44 48.4452 237.44 49.0385C237.44 49.9518 237.003 50.5285 236.13 50.7685V50.7985C236.47 50.8985 236.723 51.0585 236.89 51.2785C237.063 51.4918 237.173 51.8118 237.22 52.2385C237.233 52.3985 237.246 52.5885 237.26 52.8085C237.28 53.0218 237.293 53.1918 237.3 53.3185C237.313 53.4452 237.326 53.5718 237.34 53.6985C237.36 53.8252 237.383 53.9252 237.41 53.9985C237.443 54.0652 237.483 54.1085 237.53 54.1285V54.1985H236.14C236.113 54.1852 236.09 54.1618 236.07 54.1285C236.05 54.0885 236.033 54.0352 236.02 53.9685C236.006 53.9018 235.993 53.8352 235.98 53.7685C235.973 53.6952 235.963 53.6052 235.95 53.4985C235.943 53.3852 235.936 53.2885 235.93 53.2085C235.923 53.1218 235.913 53.0118 235.9 52.8785C235.893 52.7385 235.886 52.6285 235.88 52.5485C235.82 51.7352 235.353 51.3285 234.48 51.3285H233.31V54.1985H231.86ZM233.31 48.2185V50.2085H234.85C235.23 50.2085 235.52 50.1185 235.72 49.9385C235.926 49.7585 236.03 49.5218 236.03 49.2285C236.03 48.9285 235.933 48.6852 235.74 48.4985C235.546 48.3118 235.263 48.2185 234.89 48.2185H233.31ZM238.263 54.1985V49.0685H239.623V54.1985H238.263ZM238.263 48.2685V47.0485H239.623V48.2685H238.263ZM242.88 54.3485C242.086 54.3485 241.45 54.0918 240.97 53.5785C240.49 53.0652 240.25 52.4185 240.25 51.6385C240.25 50.8585 240.483 50.2118 240.95 49.6985C241.423 49.1852 242.043 48.9285 242.81 48.9285C243.456 48.9285 243.983 49.0985 244.39 49.4385C244.796 49.7785 245.046 50.2352 245.14 50.8085H243.81C243.763 50.5752 243.656 50.3852 243.49 50.2385C243.323 50.0918 243.116 50.0185 242.87 50.0185C242.47 50.0185 242.163 50.1618 241.95 50.4485C241.736 50.7352 241.63 51.1318 241.63 51.6385C241.63 52.1385 241.733 52.5352 241.94 52.8285C242.146 53.1152 242.45 53.2585 242.85 53.2585C243.443 53.2585 243.786 52.9685 243.88 52.3885H245.19C245.143 52.9552 244.913 53.4252 244.5 53.7985C244.086 54.1652 243.546 54.3485 242.88 54.3485ZM248.193 54.3485C247.366 54.3485 246.716 54.0952 246.243 53.5885C245.769 53.0752 245.533 52.4218 245.533 51.6285C245.533 50.8618 245.769 50.2218 246.243 49.7085C246.716 49.1885 247.323 48.9285 248.063 48.9285C248.869 48.9285 249.493 49.2085 249.933 49.7685C250.373 50.3285 250.593 51.0785 250.593 52.0185H246.873C246.926 52.4252 247.063 52.7418 247.283 52.9685C247.503 53.1885 247.803 53.2985 248.183 53.2985C248.683 53.2985 249.013 53.0885 249.173 52.6685H250.513C250.413 53.1485 250.159 53.5485 249.753 53.8685C249.346 54.1885 248.826 54.3485 248.193 54.3485ZM248.083 49.9785C247.423 49.9785 247.026 50.3452 246.893 51.0785H249.173C249.153 50.7518 249.043 50.4885 248.843 50.2885C248.643 50.0818 248.389 49.9785 248.083 49.9785Z" fill="black"/>
<rect x="231.31" y="79.762" width="69.127" height="29.246" rx="3" fill="#DBB257"/>
<g filter="url(#filter0_d_2_69)">
<rect x="210" y="145" width="69.127" height="29.246" rx="3" fill="#DBB257"/>
</g>
<rect x="26.5873" y="34.5635" width="85.0794" height="124.96" rx="3" fill="#F3F0EA"/>
<path d="M35.1135 54.1985V47.0485H38.2535C39.0668 47.0485 39.6901 47.2718 40.1235 47.7185C40.5501 48.1585 40.7635 48.7018 40.7635 49.3485C40.7635 50.0285 40.5501 50.5752 40.1235 50.9885C39.6968 51.4018 39.1135 51.6085 38.3735 51.6085H36.6135V54.1985H35.1135ZM36.6135 48.3085V50.4285H38.1135C38.4868 50.4285 38.7735 50.3352 38.9735 50.1485C39.1735 49.9552 39.2735 49.6918 39.2735 49.3585C39.2735 49.0252 39.1735 48.7685 38.9735 48.5885C38.7735 48.4018 38.4935 48.3085 38.1335 48.3085H36.6135ZM44.4054 54.1985C44.3387 54.1118 44.2854 53.9218 44.2454 53.6285H44.2254C44.0787 53.8485 43.892 54.0185 43.6654 54.1385C43.4387 54.2585 43.122 54.3185 42.7154 54.3185C42.1754 54.3185 41.742 54.1818 41.4154 53.9085C41.0887 53.6352 40.9254 53.2485 40.9254 52.7485C40.9254 52.2285 41.1054 51.8485 41.4654 51.6085C41.8254 51.3618 42.332 51.1918 42.9854 51.0985C43.4654 51.0318 43.792 50.9652 43.9654 50.8985C44.1387 50.8252 44.2254 50.6985 44.2254 50.5185C44.2254 50.3318 44.152 50.1852 44.0054 50.0785C43.8587 49.9652 43.6454 49.9085 43.3654 49.9085C42.7454 49.9085 42.4154 50.1485 42.3754 50.6285H41.1654C41.1854 50.1418 41.382 49.7385 41.7554 49.4185C42.1287 49.0985 42.6687 48.9385 43.3754 48.9385C44.8154 48.9385 45.5354 49.5685 45.5354 50.8285V53.4385C45.5354 53.8252 45.5954 54.0618 45.7154 54.1485V54.1985H44.4054ZM43.0454 53.3685C43.4187 53.3685 43.712 53.2718 43.9254 53.0785C44.1454 52.8852 44.2554 52.6552 44.2554 52.3885V51.6185C44.1087 51.7052 43.792 51.8052 43.3054 51.9185C42.9187 52.0052 42.6454 52.1052 42.4854 52.2185C42.3254 52.3252 42.2454 52.4918 42.2454 52.7185C42.2454 53.1518 42.512 53.3685 43.0454 53.3685ZM48.48 54.3485C47.7466 54.3485 47.1733 54.1885 46.76 53.8685C46.3466 53.5418 46.12 53.0985 46.08 52.5385H47.34C47.4266 53.1052 47.8 53.3885 48.46 53.3885C48.76 53.3885 48.99 53.3352 49.15 53.2285C49.3166 53.1218 49.4 52.9785 49.4 52.7985C49.4 52.7318 49.3866 52.6718 49.36 52.6185C49.34 52.5652 49.3 52.5185 49.24 52.4785C49.1866 52.4318 49.1366 52.3952 49.09 52.3685C49.05 52.3418 48.9766 52.3152 48.87 52.2885C48.7633 52.2618 48.68 52.2418 48.62 52.2285C48.5666 52.2152 48.47 52.1985 48.33 52.1785C48.1966 52.1518 48.1033 52.1318 48.05 52.1185C47.77 52.0652 47.54 52.0118 47.36 51.9585C47.1866 51.8985 47.0033 51.8152 46.81 51.7085C46.6166 51.5952 46.47 51.4452 46.37 51.2585C46.2766 51.0652 46.23 50.8352 46.23 50.5685C46.23 50.0352 46.4233 49.6285 46.81 49.3485C47.2033 49.0685 47.7066 48.9285 48.32 48.9285C48.98 48.9285 49.4966 49.0818 49.87 49.3885C50.25 49.6885 50.4666 50.1018 50.52 50.6285H49.29C49.2366 50.1285 48.9066 49.8785 48.3 49.8785C48.0266 49.8785 47.81 49.9285 47.65 50.0285C47.4966 50.1285 47.42 50.2685 47.42 50.4485C47.42 50.5085 47.43 50.5652 47.45 50.6185C47.4766 50.6652 47.5166 50.7085 47.57 50.7485C47.63 50.7818 47.6866 50.8118 47.74 50.8385C47.7933 50.8585 47.87 50.8818 47.97 50.9085C48.07 50.9285 48.1566 50.9485 48.23 50.9685C48.3033 50.9818 48.4033 51.0018 48.53 51.0285C48.6566 51.0485 48.7566 51.0652 48.83 51.0785C49.0433 51.1252 49.2166 51.1685 49.35 51.2085C49.49 51.2418 49.65 51.3018 49.83 51.3885C50.01 51.4685 50.15 51.5618 50.25 51.6685C50.3566 51.7685 50.4466 51.9085 50.52 52.0885C50.6 52.2618 50.64 52.4652 50.64 52.6985C50.64 53.2052 50.44 53.6085 50.04 53.9085C49.6466 54.2018 49.1266 54.3485 48.48 54.3485ZM50.8558 49.9685V49.0685H51.5658V47.4685H52.8958V49.0685H53.7758V49.9685H52.8958V52.6885C52.8958 53.0285 53.0658 53.1985 53.4058 53.1985L53.8058 53.1885V54.1885C53.5992 54.2018 53.3158 54.2085 52.9558 54.2085C52.5625 54.2085 52.2325 54.1152 51.9658 53.9285C51.6992 53.7352 51.5658 53.4185 51.5658 52.9785V49.9685H50.8558ZM57.755 54.1985C57.6883 54.1118 57.635 53.9218 57.595 53.6285H57.575C57.4283 53.8485 57.2416 54.0185 57.015 54.1385C56.7883 54.2585 56.4716 54.3185 56.065 54.3185C55.525 54.3185 55.0916 54.1818 54.765 53.9085C54.4383 53.6352 54.275 53.2485 54.275 52.7485C54.275 52.2285 54.455 51.8485 54.815 51.6085C55.175 51.3618 55.6816 51.1918 56.335 51.0985C56.815 51.0318 57.1416 50.9652 57.315 50.8985C57.4883 50.8252 57.575 50.6985 57.575 50.5185C57.575 50.3318 57.5016 50.1852 57.355 50.0785C57.2083 49.9652 56.995 49.9085 56.715 49.9085C56.095 49.9085 55.765 50.1485 55.725 50.6285H54.515C54.535 50.1418 54.7316 49.7385 55.105 49.4185C55.4783 49.0985 56.0183 48.9385 56.725 48.9385C58.165 48.9385 58.885 49.5685 58.885 50.8285V53.4385C58.885 53.8252 58.945 54.0618 59.065 54.1485V54.1985H57.755ZM56.395 53.3685C56.7683 53.3685 57.0616 53.2718 57.275 53.0785C57.495 52.8852 57.605 52.6552 57.605 52.3885V51.6185C57.4583 51.7052 57.1416 51.8052 56.655 51.9185C56.2683 52.0052 55.995 52.1052 55.835 52.2185C55.675 52.3252 55.595 52.4918 55.595 52.7185C55.595 53.1518 55.8616 53.3685 56.395 53.3685Z" fill="black"/>
<rect x="34.5635" y="79.762" width="69.127" height="29.246" rx="3" fill="#DBB257"/>
<rect x="34.5635" y="114.325" width="69.127" height="29.246" rx="3" fill="#DBB257"/>
<rect x="124.96" y="34.5635" width="85.0794" height="124.96" rx="3" fill="#F3F0EA"/>
<path d="M133.487 54.1985V47.0485H136.627C137.44 47.0485 138.063 47.2718 138.497 47.7185C138.923 48.1585 139.137 48.7018 139.137 49.3485C139.137 50.0285 138.923 50.5752 138.497 50.9885C138.07 51.4018 137.487 51.6085 136.747 51.6085H134.987V54.1985H133.487ZM134.987 48.3085V50.4285H136.487C136.86 50.4285 137.147 50.3352 137.347 50.1485C137.547 49.9552 137.647 49.6918 137.647 49.3585C137.647 49.0252 137.547 48.7685 137.347 48.5885C137.147 48.4018 136.867 48.3085 136.507 48.3085H134.987ZM143.957 53.5785C143.457 54.0918 142.814 54.3485 142.027 54.3485C141.241 54.3485 140.597 54.0918 140.097 53.5785C139.597 53.0585 139.347 52.4118 139.347 51.6385C139.347 50.8652 139.597 50.2218 140.097 49.7085C140.597 49.1885 141.241 48.9285 142.027 48.9285C142.814 48.9285 143.457 49.1885 143.957 49.7085C144.457 50.2218 144.707 50.8652 144.707 51.6385C144.707 52.4118 144.457 53.0585 143.957 53.5785ZM142.027 53.3085C142.434 53.3085 142.751 53.1585 142.977 52.8585C143.211 52.5518 143.327 52.1452 143.327 51.6385C143.327 51.1318 143.211 50.7252 142.977 50.4185C142.751 50.1118 142.434 49.9585 142.027 49.9585C141.614 49.9585 141.294 50.1118 141.067 50.4185C140.841 50.7185 140.727 51.1252 140.727 51.6385C140.727 52.1452 140.841 52.5518 141.067 52.8585C141.294 53.1585 141.614 53.3085 142.027 53.3085ZM144.942 49.9685V49.0685H145.652V47.4685H146.982V49.0685H147.862V49.9685H146.982V52.6885C146.982 53.0285 147.152 53.1985 147.492 53.1985L147.892 53.1885V54.1885C147.685 54.2018 147.402 54.2085 147.042 54.2085C146.648 54.2085 146.318 54.1152 146.052 53.9285C145.785 53.7352 145.652 53.4185 145.652 52.9785V49.9685H144.942ZM151.841 54.1985C151.774 54.1118 151.721 53.9218 151.681 53.6285H151.661C151.514 53.8485 151.328 54.0185 151.101 54.1385C150.874 54.2585 150.558 54.3185 150.151 54.3185C149.611 54.3185 149.178 54.1818 148.851 53.9085C148.524 53.6352 148.361 53.2485 148.361 52.7485C148.361 52.2285 148.541 51.8485 148.901 51.6085C149.261 51.3618 149.768 51.1918 150.421 51.0985C150.901 51.0318 151.228 50.9652 151.401 50.8985C151.574 50.8252 151.661 50.6985 151.661 50.5185C151.661 50.3318 151.588 50.1852 151.441 50.0785C151.294 49.9652 151.081 49.9085 150.801 49.9085C150.181 49.9085 149.851 50.1485 149.811 50.6285H148.601C148.621 50.1418 148.818 49.7385 149.191 49.4185C149.564 49.0985 150.104 48.9385 150.811 48.9385C152.251 48.9385 152.971 49.5685 152.971 50.8285V53.4385C152.971 53.8252 153.031 54.0618 153.151 54.1485V54.1985H151.841ZM150.481 53.3685C150.854 53.3685 151.148 53.2718 151.361 53.0785C151.581 52.8852 151.691 52.6552 151.691 52.3885V51.6185C151.544 51.7052 151.228 51.8052 150.741 51.9185C150.354 52.0052 150.081 52.1052 149.921 52.2185C149.761 52.3252 149.681 52.4918 149.681 52.7185C149.681 53.1518 149.948 53.3685 150.481 53.3685ZM153.438 49.9685V49.0685H154.148V47.4685H155.478V49.0685H156.358V49.9685H155.478V52.6885C155.478 53.0285 155.648 53.1985 155.988 53.1985L156.388 53.1885V54.1885C156.181 54.2018 155.898 54.2085 155.538 54.2085C155.145 54.2085 154.815 54.1152 154.548 53.9285C154.281 53.7352 154.148 53.4185 154.148 52.9785V49.9685H153.438ZM161.369 53.5785C160.869 54.0918 160.226 54.3485 159.439 54.3485C158.653 54.3485 158.009 54.0918 157.509 53.5785C157.009 53.0585 156.759 52.4118 156.759 51.6385C156.759 50.8652 157.009 50.2218 157.509 49.7085C158.009 49.1885 158.653 48.9285 159.439 48.9285C160.226 48.9285 160.869 49.1885 161.369 49.7085C161.869 50.2218 162.119 50.8652 162.119 51.6385C162.119 52.4118 161.869 53.0585 161.369 53.5785ZM159.439 53.3085C159.846 53.3085 160.163 53.1585 160.389 52.8585C160.623 52.5518 160.739 52.1452 160.739 51.6385C160.739 51.1318 160.623 50.7252 160.389 50.4185C160.163 50.1118 159.846 49.9585 159.439 49.9585C159.026 49.9585 158.706 50.1118 158.479 50.4185C158.253 50.7185 158.139 51.1252 158.139 51.6385C158.139 52.1452 158.253 52.5518 158.479 52.8585C158.706 53.1585 159.026 53.3085 159.439 53.3085Z" fill="black"/>
<rect x="132.937" y="79.762" width="69.127" height="29.246" rx="3" fill="#DBB257"/>
<rect x="132.937" y="114.325" width="69.127" height="29.246" rx="3" fill="#DBB257"/>
<rect x="321.706" y="183.452" width="85.0794" height="124.96" rx="3" fill="#F3F0EA"/>
<path d="M329.862 197.157V195.937H335.612V197.157H333.462V203.087H332.012V197.157H329.862ZM337.596 195.937V198.627H337.626C337.819 198.347 338.029 198.144 338.256 198.017C338.489 197.884 338.776 197.817 339.116 197.817C339.642 197.817 340.069 197.997 340.396 198.357C340.722 198.711 340.886 199.171 340.886 199.737V203.087H339.526V199.937C339.526 199.657 339.446 199.431 339.286 199.257C339.132 199.084 338.916 198.997 338.636 198.997C338.336 198.997 338.086 199.107 337.886 199.327C337.692 199.547 337.596 199.831 337.596 200.177V203.087H336.236V195.937H337.596ZM346.274 203.087H344.964V202.487H344.934C344.747 202.741 344.541 202.927 344.314 203.047C344.094 203.167 343.811 203.227 343.464 203.227C342.904 203.227 342.467 203.061 342.154 202.727C341.841 202.394 341.684 201.944 341.684 201.377V197.957H343.034V201.147C343.034 201.767 343.317 202.077 343.884 202.077C344.197 202.077 344.447 201.971 344.634 201.757C344.821 201.544 344.914 201.264 344.914 200.917V197.957H346.274V203.087ZM350.213 203.087V198.307H348.663V197.407C349.69 197.367 350.267 196.961 350.393 196.187H351.583V203.087H350.213ZM355.199 203.237C354.433 203.237 353.796 203.047 353.289 202.667C352.789 202.287 352.506 201.767 352.439 201.107H353.779C353.839 201.434 353.993 201.681 354.239 201.847C354.493 202.014 354.803 202.097 355.169 202.097C355.549 202.097 355.856 201.977 356.089 201.737C356.323 201.491 356.439 201.181 356.439 200.807C356.439 200.414 356.319 200.107 356.079 199.887C355.846 199.661 355.543 199.547 355.169 199.547C354.669 199.547 354.296 199.691 354.049 199.977H352.739L353.399 196.237H357.439V197.367H354.349L354.089 198.847H354.109C354.443 198.561 354.916 198.417 355.529 198.417C356.163 198.417 356.706 198.637 357.159 199.077C357.619 199.517 357.849 200.094 357.849 200.807C357.849 201.514 357.596 202.097 357.089 202.557C356.589 203.011 355.959 203.237 355.199 203.237Z" fill="black"/>
<rect x="329.682" y="228.651" width="69.127" height="29.246" rx="3" fill="#3A8569"/>
<rect x="329.682" y="263.214" width="69.127" height="29.246" rx="3" fill="#3A8569"/>
<rect x="420.079" y="183.452" width="85.0794" height="124.96" rx="3" fill="#F3F0EA"/>
<path d="M428.606 203.087V195.937H433.726V197.167H430.056V198.887H433.166V200.127H430.056V203.087H428.606ZM435.44 197.957V198.777H435.47C435.63 198.477 435.807 198.257 436 198.117C436.194 197.971 436.437 197.897 436.73 197.897C436.87 197.897 436.977 197.911 437.05 197.937V199.127H437.02C436.56 199.081 436.19 199.181 435.91 199.427C435.63 199.674 435.49 200.061 435.49 200.587V203.087H434.13V197.957H435.44ZM437.636 203.087V197.957H438.996V203.087H437.636ZM437.636 197.157V195.937H438.996V197.157H437.636ZM442.932 203.087V198.307H441.382V197.407C442.409 197.367 442.986 196.961 443.112 196.187H444.302V203.087H442.932ZM448.178 203.237C447.252 203.237 446.548 202.911 446.068 202.257C445.595 201.597 445.352 200.767 445.338 199.767C445.325 198.494 445.605 197.534 446.178 196.887C446.645 196.361 447.302 196.097 448.148 196.097C448.815 196.097 449.352 196.261 449.758 196.587C450.172 196.914 450.422 197.341 450.508 197.867H449.198C449.085 197.381 448.752 197.137 448.198 197.137C447.712 197.137 447.342 197.311 447.088 197.657C446.842 197.997 446.718 198.477 446.718 199.097H446.738C447.145 198.624 447.682 198.387 448.348 198.387C449.002 198.387 449.562 198.617 450.028 199.077C450.495 199.537 450.728 200.124 450.728 200.837C450.728 201.537 450.482 202.114 449.988 202.567C449.502 203.014 448.898 203.237 448.178 203.237ZM448.128 202.167C448.495 202.167 448.802 202.044 449.048 201.797C449.302 201.544 449.428 201.231 449.428 200.857C449.428 200.464 449.305 200.137 449.058 199.877C448.812 199.617 448.505 199.487 448.138 199.487C447.725 199.487 447.398 199.614 447.158 199.867C446.925 200.114 446.808 200.441 446.808 200.847C446.808 201.234 446.932 201.551 447.178 201.797C447.425 202.044 447.742 202.167 448.128 202.167Z" fill="black"/>
<rect x="428.056" y="228.651" width="69.127" height="29.246" rx="3" fill="#3A8569"/>
<rect x="428.056" y="263.214" width="69.127" height="29.246" rx="3" fill="#3A8569"/>
<rect x="223.333" y="186.111" width="85.0794" height="124.96" rx="3" fill="#F3F0EA"/>
<path d="M233.44 205.746L231.36 198.596H232.84L233.77 202.146L234.08 203.706H234.1C234.22 203.113 234.33 202.606 234.43 202.186L235.21 198.596H236.61L237.39 202.176L237.72 203.706H237.74C237.88 203.073 237.996 202.549 238.09 202.136L238.99 198.596H240.42L238.38 205.746H237.03L236.16 201.916L235.91 200.646H235.89C235.816 201.146 235.74 201.569 235.66 201.916L234.78 205.746H233.44ZM242.773 205.896C241.946 205.896 241.296 205.643 240.823 205.136C240.35 204.623 240.113 203.969 240.113 203.176C240.113 202.409 240.35 201.769 240.823 201.256C241.296 200.736 241.903 200.476 242.643 200.476C243.45 200.476 244.073 200.756 244.513 201.316C244.953 201.876 245.173 202.626 245.173 203.566H241.453C241.506 203.973 241.643 204.289 241.863 204.516C242.083 204.736 242.383 204.846 242.763 204.846C243.263 204.846 243.593 204.636 243.753 204.216H245.093C244.993 204.696 244.74 205.096 244.333 205.416C243.926 205.736 243.406 205.896 242.773 205.896ZM242.663 201.526C242.003 201.526 241.606 201.893 241.473 202.626H243.753C243.733 202.299 243.623 202.036 243.423 201.836C243.223 201.629 242.97 201.526 242.663 201.526ZM247.722 205.896C247.076 205.896 246.552 205.653 246.152 205.166C245.752 204.673 245.552 204.013 245.552 203.186C245.552 202.386 245.756 201.736 246.162 201.236C246.576 200.729 247.102 200.476 247.742 200.476C248.382 200.476 248.866 200.729 249.192 201.236H249.222V198.596H250.582V205.746H249.272V205.076H249.252C248.919 205.623 248.409 205.896 247.722 205.896ZM248.022 204.756C248.422 204.756 248.726 204.619 248.932 204.346C249.146 204.073 249.252 203.696 249.252 203.216C249.252 202.123 248.856 201.576 248.062 201.576C247.696 201.576 247.416 201.723 247.222 202.016C247.029 202.309 246.932 202.699 246.932 203.186C246.932 203.686 247.026 204.073 247.212 204.346C247.406 204.619 247.676 204.756 248.022 204.756ZM254.526 205.746V200.966H252.976V200.066C254.003 200.026 254.579 199.619 254.706 198.846H255.896V205.746H254.526ZM260.022 205.746V204.256H256.862V202.786L259.972 198.816H261.352V203.166H262.392V204.256H261.352V205.746H260.022ZM257.962 203.136V203.166H260.022V200.506H260.002L257.962 203.136Z" fill="black"/>
<rect x="231.31" y="231.31" width="69.127" height="29.246" rx="3" fill="#3A8569"/>
<rect x="231.31" y="265.873" width="69.127" height="29.246" rx="3" fill="#3A8569"/>
<rect x="26.5873" y="186.111" width="85.0794" height="124.96" rx="3" fill="#F3F0EA"/>
<path d="M35.1135 205.746V198.596H37.1535L38.1635 202.186C38.2368 202.453 38.3101 202.749 38.3835 203.076C38.4635 203.396 38.5235 203.649 38.5635 203.836L38.6135 204.116H38.6335C38.7601 203.429 38.9068 202.786 39.0735 202.186L40.0835 198.596H42.1535V205.746H40.8035V201.646L40.8635 200.166H40.8435C40.7368 200.726 40.6335 201.179 40.5335 201.526L39.3035 205.746H37.9135L36.7135 201.526L36.4035 200.166H36.3835C36.4235 200.766 36.4435 201.259 36.4435 201.646V205.746H35.1135ZM47.508 205.126C47.008 205.639 46.3647 205.896 45.578 205.896C44.7913 205.896 44.148 205.639 43.648 205.126C43.148 204.606 42.898 203.959 42.898 203.186C42.898 202.413 43.148 201.769 43.648 201.256C44.148 200.736 44.7913 200.476 45.578 200.476C46.3647 200.476 47.008 200.736 47.508 201.256C48.008 201.769 48.258 202.413 48.258 203.186C48.258 203.959 48.008 204.606 47.508 205.126ZM45.578 204.856C45.9847 204.856 46.3013 204.706 46.528 204.406C46.7613 204.099 46.878 203.693 46.878 203.186C46.878 202.679 46.7613 202.273 46.528 201.966C46.3013 201.659 45.9847 201.506 45.578 201.506C45.1647 201.506 44.8447 201.659 44.618 201.966C44.3913 202.266 44.278 202.673 44.278 203.186C44.278 203.693 44.3913 204.099 44.618 204.406C44.8447 204.706 45.1647 204.856 45.578 204.856ZM50.2202 200.616V201.316H50.2502C50.6035 200.756 51.1102 200.476 51.7702 200.476C52.2969 200.476 52.7235 200.656 53.0502 201.016C53.3769 201.369 53.5402 201.829 53.5402 202.396V205.746H52.1802V202.596C52.1802 202.316 52.1002 202.089 51.9402 201.916C51.7869 201.743 51.5702 201.656 51.2902 201.656C50.9902 201.656 50.7402 201.766 50.5402 201.986C50.3469 202.206 50.2502 202.489 50.2502 202.836V205.746H48.8902V200.616H50.2202ZM57.4382 205.746V200.966H55.8882V200.066C56.9148 200.026 57.4915 199.619 57.6182 198.846H58.8082V205.746H57.4382ZM59.7942 205.746C59.8075 205.339 59.9042 204.956 60.0842 204.596C60.2642 204.229 60.4575 203.936 60.6642 203.716C60.8775 203.496 61.1375 203.266 61.4442 203.026C61.5508 202.939 61.7175 202.813 61.9442 202.646C62.1775 202.479 62.3508 202.349 62.4642 202.256C62.5775 202.163 62.7042 202.046 62.8442 201.906C62.9908 201.759 63.0942 201.613 63.1542 201.466C63.2142 201.313 63.2442 201.153 63.2442 200.986C63.2442 200.659 63.1608 200.399 62.9942 200.206C62.8275 200.013 62.5942 199.916 62.2942 199.916C61.9475 199.916 61.6742 200.036 61.4742 200.276C61.2808 200.516 61.1808 200.859 61.1742 201.306H59.8942C59.8942 200.506 60.0975 199.883 60.5042 199.436C60.9175 198.983 61.5242 198.756 62.3242 198.756C63.0442 198.756 63.6108 198.966 64.0242 199.386C64.4442 199.806 64.6542 200.326 64.6542 200.946C64.6542 201.253 64.6075 201.533 64.5142 201.786C64.4275 202.033 64.2875 202.259 64.0942 202.466C63.9008 202.673 63.7275 202.836 63.5742 202.956C63.4208 203.076 63.2075 203.226 62.9342 203.406C62.1875 203.886 61.7275 204.293 61.5542 204.626H64.7142V205.746H59.7942Z" fill="black"/>
<rect x="34.5635" y="231.31" width="69.127" height="29.246" rx="3" fill="#3A8569"/>
<rect x="34.5635" y="265.873" width="69.127" height="29.246" rx="3" fill="#3A8569"/>
<rect x="124.96" y="186.111" width="85.0794" height="124.96" rx="3" fill="#F3F0EA"/>
<path d="M133.117 199.816V198.596H138.867V199.816H136.717V205.746H135.267V199.816H133.117ZM143.337 205.746H142.027V205.146H141.997C141.81 205.399 141.603 205.586 141.377 205.706C141.157 205.826 140.873 205.886 140.527 205.886C139.967 205.886 139.53 205.719 139.217 205.386C138.903 205.053 138.747 204.603 138.747 204.036V200.616H140.097V203.806C140.097 204.426 140.38 204.736 140.947 204.736C141.26 204.736 141.51 204.629 141.697 204.416C141.883 204.203 141.977 203.923 141.977 203.576V200.616H143.337V205.746ZM146.296 205.896C145.563 205.896 144.99 205.736 144.576 205.416C144.163 205.089 143.936 204.646 143.896 204.086H145.156C145.243 204.653 145.616 204.936 146.276 204.936C146.576 204.936 146.806 204.883 146.966 204.776C147.133 204.669 147.216 204.526 147.216 204.346C147.216 204.279 147.203 204.219 147.176 204.166C147.156 204.113 147.116 204.066 147.056 204.026C147.003 203.979 146.953 203.943 146.906 203.916C146.866 203.889 146.793 203.863 146.686 203.836C146.58 203.809 146.496 203.789 146.436 203.776C146.383 203.763 146.286 203.746 146.146 203.726C146.013 203.699 145.92 203.679 145.866 203.666C145.586 203.613 145.356 203.559 145.176 203.506C145.003 203.446 144.82 203.363 144.626 203.256C144.433 203.143 144.286 202.993 144.186 202.806C144.093 202.613 144.046 202.383 144.046 202.116C144.046 201.583 144.24 201.176 144.626 200.896C145.02 200.616 145.523 200.476 146.136 200.476C146.796 200.476 147.313 200.629 147.686 200.936C148.066 201.236 148.283 201.649 148.336 202.176H147.106C147.053 201.676 146.723 201.426 146.116 201.426C145.843 201.426 145.626 201.476 145.466 201.576C145.313 201.676 145.236 201.816 145.236 201.996C145.236 202.056 145.246 202.113 145.266 202.166C145.293 202.213 145.333 202.256 145.386 202.296C145.446 202.329 145.503 202.359 145.556 202.386C145.61 202.406 145.686 202.429 145.786 202.456C145.886 202.476 145.973 202.496 146.046 202.516C146.12 202.529 146.22 202.549 146.346 202.576C146.473 202.596 146.573 202.613 146.646 202.626C146.86 202.673 147.033 202.716 147.166 202.756C147.306 202.789 147.466 202.849 147.646 202.936C147.826 203.016 147.966 203.109 148.066 203.216C148.173 203.316 148.263 203.456 148.336 203.636C148.416 203.809 148.456 204.013 148.456 204.246C148.456 204.753 148.256 205.156 147.856 205.456C147.463 205.749 146.943 205.896 146.296 205.896ZM152.13 205.746V200.966H150.58V200.066C151.606 200.026 152.183 199.619 152.31 198.846H153.5V205.746H152.13ZM157.076 205.896C156.209 205.896 155.546 205.676 155.086 205.236C154.626 204.789 154.389 204.183 154.376 203.416H155.676C155.729 204.343 156.179 204.806 157.026 204.806C157.406 204.806 157.702 204.709 157.916 204.516C158.129 204.316 158.236 204.043 158.236 203.696C158.236 203.363 158.129 203.103 157.916 202.916C157.702 202.729 157.389 202.636 156.976 202.636H156.556V201.606H156.946C157.279 201.606 157.546 201.526 157.746 201.366C157.952 201.206 158.056 200.983 158.056 200.696C158.056 200.423 157.969 200.206 157.796 200.046C157.622 199.879 157.386 199.796 157.086 199.796C156.712 199.796 156.422 199.906 156.216 200.126C156.016 200.346 155.909 200.643 155.896 201.016H154.596C154.622 200.323 154.849 199.773 155.276 199.366C155.702 198.959 156.306 198.756 157.086 198.756C157.806 198.756 158.376 198.923 158.796 199.256C159.222 199.589 159.436 200.039 159.436 200.606C159.436 201.313 159.046 201.793 158.266 202.046V202.066C159.192 202.293 159.656 202.866 159.656 203.786C159.656 204.466 159.412 204.989 158.926 205.356C158.439 205.716 157.822 205.896 157.076 205.896Z" fill="black"/>
<rect x="132.937" y="231.31" width="69.127" height="29.246" rx="3" fill="#3A8569"/>
<rect x="132.937" y="265.873" width="69.127" height="29.246" rx="3" fill="#3A8569"/>
<defs>
<filter id="filter0_d_2_69" x="206" y="145" width="77.127" height="37.246" filterUnits="userSpaceOnUse" color-interpolation-filters="sRGB">
<feFlood flood-opacity="0" result="BackgroundImageFix"/>
<feColorMatrix in="SourceAlpha" type="matrix" values="0 0 0 0 0 0 0 0 0 0 0 0 0 0 0 0 0 0 127 0" result="hardAlpha"/>
<feOffset dy="4"/>
<feGaussianBlur stdDeviation="2"/>
<feComposite in2="hardAlpha" operator="out"/>
<feColorMatrix type="matrix" values="0 0 0 0 0 0 0 0 0 0 0 0 0 0 0 0 0 0 0.25 0"/>
<feBlend mode="normal" in2="BackgroundImageFix" result="effect1_dropShadow_2_69"/>
<feBlend mode="normal" in="SourceGraphic" in2="effect1_dropShadow_2_69" result="shape"/>
</filter>
</defs>
</svg>
